Coordinates
version=1
nRows=54
nColumns=12
inDegrees=yes

Units are S.I. units (second, meters, Newtons, ...)
Angles are in degrees

endheader
time	SC_y	SC_z	SC_x	AC_y	AC_z	AC_x	GH_y	GH_z	GH_yy	EL_x	PS_y
       0.0              -25.98          28.31          34.22          46.01          2.264          15.59          49.03          32.38          167.1          44.66          79.43
   0.02621              -25.98          28.32          34.22          46.01          2.262          15.59          49.01          32.38          167.0          44.67          79.44
   0.05242              -25.98          28.32          34.22          46.02          2.261          15.59          48.99          32.39          167.0          44.68          79.45
   0.07863              -25.98          28.32          34.22          46.02          2.259          15.59          48.97           32.4          166.9          44.68          79.46
    0.1048              -25.98          28.32          34.22          46.02          2.257          15.59          48.95          32.41          166.9          44.69          79.47
     0.131              -25.98          28.32          34.22          46.02          2.255          15.59          48.93          32.41          166.8           44.7          79.48
    0.1573              -25.98          28.32          34.22          46.02          2.253          15.59           48.9          32.42          166.7          44.71          79.49
    0.1835              -25.98          28.33          34.22          46.03          2.251          15.59          48.87          32.43          166.7          44.72          79.51
    0.2097              -25.98          28.33          34.22          46.03          2.249          15.59          48.85          32.44          166.6          44.73          79.52
    0.2359              -25.99          28.33          34.22          46.03          2.246          15.59          48.81          32.45          166.5          44.74          79.54
    0.2621              -25.99          28.33          34.22          46.04          2.243          15.59          48.78          32.47          166.4          44.75          79.55
    0.2883              -25.99          28.34          34.22          46.04           2.24          15.59          48.75          32.48          166.4          44.77          79.57
    0.3145              -25.99          28.34          34.22          46.05          2.237          15.59          48.71          32.49          166.3          44.78          79.59
    0.3407              -25.99          28.34          34.22          46.05          2.234          15.59          48.67          32.51          166.2          44.79          79.61
    0.3669              -25.99          28.35          34.22          46.06           2.23          15.58          48.62          32.52          166.0          44.81          79.64
    0.3931              -25.99          28.35          34.22          46.06          2.226          15.58          48.57          32.54          165.9          44.83          79.66
    0.4194              -25.99          28.36          34.22          46.07          2.221          15.58          48.52          32.56          165.8          44.85          79.69
    0.4456              -25.99          28.36          34.22          46.07          2.216          15.58          48.46          32.58          165.6          44.87          79.72
    0.4718               -26.0          28.36          34.22          46.08          2.211          15.58           48.4           32.6          165.5          44.89          79.75
     0.498               -26.0          28.37          34.22          46.09          2.205          15.58          48.33          32.62          165.3          44.91          79.78
    0.5242               -26.0          28.38          34.22          46.09          2.199          15.58          48.25          32.65          165.1          44.94          79.82
    0.5504               -26.0          28.38          34.22           46.1          2.192          15.57          48.17          32.68          164.9          44.97          79.86
    0.5766               -26.0          28.39          34.22          46.11          2.184          15.57          48.08          32.71          164.7           45.0          79.91
    0.6028              -26.01           28.4          34.22          46.12          2.176          15.57          47.98          32.75          164.4          45.04          79.96
     0.629              -26.01          28.41          34.22          46.14          2.166          15.57          47.86          32.79          164.1          45.08          80.02
    0.6552              -26.01          28.42          34.22          46.15          2.156          15.56          47.74          32.83          163.8          45.13          80.08
    0.6815              -26.01          28.43          34.23          46.17          2.144          15.56          47.59          32.88          163.4          45.18          80.16
    0.7077              -26.02          28.44          34.23          46.18          2.131          15.56          47.43          32.94          163.0          45.23          80.24
    0.7339              -26.02          28.46          34.23           46.2          2.116          15.55          47.25           33.0          162.6           45.3          80.33
    0.7601              -26.03          28.47          34.23          46.22          2.099          15.55          47.05          33.08          162.1          45.37          80.43
    0.7863              -26.03          28.49          34.23          46.25          2.079          15.54          46.82          33.16          161.5          45.46          80.55
    0.8125              -26.04          28.52          34.23          46.28          2.057          15.53          46.55          33.25          160.8          45.55          80.69
    0.8387              -26.05          28.54          34.23          46.31          2.031          15.53          46.24          33.36          160.0          45.66          80.84
    0.8649              -26.06          28.57          34.24          46.35          2.001          15.52          45.88          33.49          159.1          45.79          81.03
    0.8911              -26.07           28.6          34.24           46.4          1.966          15.51          45.46          33.64          158.0          45.94          81.24
    0.9173              -26.08          28.64          34.24          46.45          1.924           15.5          44.96          33.81          156.8          46.12          81.49
    0.9436              -26.09          28.69          34.25          46.51          1.875          15.48          44.37          34.02          155.3          46.33          81.79
    0.9698              -26.11          28.75          34.25          46.59          1.816          15.46          43.67          34.27          153.5          46.58          82.15
     0.996              -26.13          28.82          34.26          46.68          1.744          15.44          42.81          34.57          151.3          46.89          82.58
     1.022              -26.16           28.9          34.26           46.8          1.657          15.42          41.77          34.94          148.7          47.26          83.11
     1.048              -26.19          29.01          34.27          46.93          1.549          15.39          40.48          35.39          145.4          47.72          83.76
     1.075              -26.23          29.14          34.28          47.11          1.415          15.35          38.87          35.96          141.4          48.29          84.58
     1.101              -26.27           29.3           34.3          47.33          1.246           15.3          36.84          36.67          136.2          49.02          85.61
     1.127              -26.34          29.51          34.31           47.6          1.031          15.24          34.27          37.58          129.7          49.94          86.91
     1.153              -26.42          29.78          34.34          47.96         0.7558          15.16          30.98          38.74          121.4          51.11          88.58
     1.179              -26.52          30.12          34.36          48.42         0.4026          15.06          26.75          40.23          110.7          52.62          90.73
     1.206              -26.65          30.56           34.4           49.0       -0.04853          14.93          21.35          42.13          97.03          54.55          93.46
     1.232              -26.81          31.11          34.45          49.73        -0.6158          14.76          14.56          44.52          79.85          56.98          96.91
     1.258              -27.01          31.78           34.5          50.63         -1.307          14.57           6.28          47.44          58.91          59.93          101.1
     1.284              -27.24          32.56          34.56          51.66         -2.108          14.33         -3.312          50.82          34.64          63.36          106.0
      1.31               -27.5          33.41          34.63          52.79         -2.976          14.08          -13.7          54.48          8.366          67.07          111.2
     1.337              -27.75          34.25           34.7          53.91         -3.844          13.83         -24.09          58.14         -17.91          70.78          116.5
     1.363              -27.98          35.03          34.77          54.94         -4.645           13.6         -33.68          61.52         -42.18          74.21          121.4
     1.389              -28.18           35.7          34.82          55.84         -5.336           13.4         -41.95          64.43         -63.12          77.16          125.6
